<svg xmlns="http://www.w3.org/2000/svg" width="1200" height="300" viewBox="0 0 1200 300">
<rect width="1200" height="300" fill="#1e1e2e"/>
<line x1="110" y1="150" x2="1090" y2="150" stroke="#585b70" stroke-width="2"/>
<rect x="105.5" y="145.5" width="9" height="9" rx="2" fill="#cdd6f4"/>
<rect x="105.9" y="145.5" width="9" height="9" rx="2" fill="#a6adc8"/>
<rect x="107.0" y="145.5" width="9" height="9" rx="2" fill="#a6adc8"/>
<rect x="108.8" y="145.5" width="9" height="9" rx="2" fill="#a6adc8"/>
<rect x="111.2" y="145.5" width="9" height="9" rx="2" fill="#a6adc8"/>
<rect x="114.2" y="145.5" width="9" height="9" rx="2" fill="#cdd6f4"/>
<rect x="117.8" y="145.5" width="9" height="9" rx="2" fill="#a6adc8"/>
<rect x="122.0" y="145.5" width="9" height="9" rx="2" fill="#a6adc8"/>
<rect x="126.8" y="145.5" width="9" height="9" rx="2" fill="#a6adc8"/>
<rect x="132.2" y="145.5" width="9" height="9" rx="2" fill="#a6adc8"/>
<rect x="138.1" y="145.5" width="9" height="9" rx="2" fill="#cdd6f4"/>
<rect x="144.5" y="145.5" width="9" height="9" rx="2" fill="#a6adc8"/>
<rect x="151.5" y="145.5" width="9" height="9" rx="2" fill="#a6adc8"/>
<rect x="159.1" y="145.5" width="9" height="9" rx="2" fill="#a6adc8"/>
<rect x="167.2" y="145.5" width="9" height="9" rx="2" fill="#a6adc8"/>
<rect x="175.9" y="145.5" width="9" height="9" rx="2" fill="#cdd6f4"/>
<rect x="185.0" y="145.5" width="9" height="9" rx="2" fill="#a6adc8"/>
<rect x="194.7" y="145.5" width="9" height="9" rx="2" fill="#a6adc8"/>
<rect x="205.0" y="145.5" width="9" height="9" rx="2" fill="#a6adc8"/>
<rect x="215.7" y="145.5" width="9" height="9" rx="2" fill="#a6adc8"/>
<rect x="227.0" y="145.5" width="9" height="9" rx="2" fill="#cdd6f4"/>
<rect x="238.8" y="145.5" width="9" height="9" rx="2" fill="#a6adc8"/>
<rect x="251.2" y="145.5" width="9" height="9" rx="2" fill="#a6adc8"/>
<rect x="264.0" y="145.5" width="9" height="9" rx="2" fill="#a6adc8"/>
<rect x="277.3" y="145.5" width="9" height="9" rx="2" fill="#a6adc8"/>
<rect x="291.2" y="145.5" width="9" height="9" rx="2" fill="#cdd6f4"/>
<rect x="305.6" y="145.5" width="9" height="9" rx="2" fill="#a6adc8"/>
<rect x="320.4" y="145.5" width="9" height="9" rx="2" fill="#a6adc8"/>
<rect x="335.8" y="145.5" width="9" height="9" rx="2" fill="#a6adc8"/>
<rect x="351.7" y="145.5" width="9" height="9" rx="2" fill="#a6adc8"/>
<rect x="368.1" y="145.5" width="9" height="9" rx="2" fill="#cdd6f4"/>
<rect x="385.0" y="145.5" width="9" height="9" rx="2" fill="#a6adc8"/>
<rect x="402.3" y="145.5" width="9" height="9" rx="2" fill="#a6adc8"/>
<rect x="420.2" y="145.5" width="9" height="9" rx="2" fill="#a6adc8"/>
<rect x="438.6" y="145.5" width="9" height="9" rx="2" fill="#a6adc8"/>
<rect x="457.4" y="145.5" width="9" height="9" rx="2" fill="#cdd6f4"/>
<rect x="476.8" y="145.5" width="9" height="9" rx="2" fill="#a6adc8"/>
<rect x="496.6" y="145.5" width="9" height="9" rx="2" fill="#a6adc8"/>
<rect x="517.0" y="145.5" width="9" height="9" rx="2" fill="#a6adc8"/>
<rect x="537.8" y="145.5" width="9" height="9" rx="2" fill="#a6adc8"/>
<rect x="559.1" y="145.5" width="9" height="9" rx="2" fill="#cdd6f4"/>
<rect x="580.9" y="145.5" width="9" height="9" rx="2" fill="#a6adc8"/>
<rect x="603.1" y="145.5" width="9" height="9" rx="2" fill="#a6adc8"/>
<rect x="625.9" y="145.5" width="9" height="9" rx="2" fill="#a6adc8"/>
<rect x="649.1" y="145.5" width="9" height="9" rx="2" fill="#a6adc8"/>
<rect x="672.8" y="145.5" width="9" height="9" rx="2" fill="#cdd6f4"/>
<rect x="697.0" y="145.5" width="9" height="9" rx="2" fill="#a6adc8"/>
<rect x="721.7" y="145.5" width="9" height="9" rx="2" fill="#a6adc8"/>
<rect x="746.9" y="145.5" width="9" height="9" rx="2" fill="#a6adc8"/>
<rect x="772.5" y="145.5" width="9" height="9" rx="2" fill="#a6adc8"/>
<rect x="798.6" y="145.5" width="9" height="9" rx="2" fill="#cdd6f4"/>
<rect x="825.2" y="145.5" width="9" height="9" rx="2" fill="#a6adc8"/>
<rect x="852.2" y="145.5" width="9" height="9" rx="2" fill="#a6adc8"/>
<rect x="879.7" y="145.5" width="9" height="9" rx="2" fill="#a6adc8"/>
<rect x="907.7" y="145.5" width="9" height="9" rx="2" fill="#a6adc8"/>
<rect x="936.2" y="145.5" width="9" height="9" rx="2" fill="#cdd6f4"/>
<rect x="965.1" y="145.5" width="9" height="9" rx="2" fill="#a6adc8"/>
<rect x="994.5" y="145.5" width="9" height="9" rx="2" fill="#a6adc8"/>
<rect x="1024.4" y="145.5" width="9" height="9" rx="2" fill="#a6adc8"/>
<rect x="1054.7" y="145.5" width="9" height="9" rx="2" fill="#a6adc8"/>
<rect x="1085.5" y="145.5" width="9" height="9" rx="2" fill="#74c7ec"/>
<line x1="110" y1="164" x2="110" y2="174" stroke="#6c7086" stroke-width="1.5"/>
<text x="110" y="194" text-anchor="start" font-family="Noto Sans Mono" font-size="15" fill="#a6adc8">1.8.9</text>
<line x1="209" y1="164" x2="209" y2="174" stroke="#6c7086" stroke-width="1.5"/>
<text x="209" y="194" text-anchor="middle" font-family="Noto Sans Mono" font-size="15" fill="#a6adc8">1.16.5</text>
<line x1="505" y1="164" x2="505" y2="174" stroke="#6c7086" stroke-width="1.5"/>
<text x="505" y="194" text-anchor="middle" font-family="Noto Sans Mono" font-size="15" fill="#a6adc8">1.21.11</text>
<line x1="1090" y1="164" x2="1090" y2="174" stroke="#6c7086" stroke-width="1.5"/>
<text x="1090" y="194" text-anchor="end" font-family="Noto Sans Mono" font-size="15" fill="#a6adc8">26.2</text>
<text x="110" y="104" font-family="Noto Sans CJK SC" font-size="17" fill="#cdd6f4">内置版本矩阵</text>
<text x="110" y="128" font-family="Noto Sans CJK SC" font-size="14" fill="#6c7086">61 个 MC 版本 · 7 个平台 · 每条坐标对着上游仓库实测</text>
<text x="1090" y="104" text-anchor="end" font-family="Noto Sans Mono" font-size="15" fill="#a6e3a1">Java 8 → 25</text>
</svg>